<?xml version="1.0" encoding="UTF-8" standalone="no"?>
<!-- Created with Inkscape (http://www.inkscape.org/) -->

<svg
   xmlns:dc="http://purl.org/dc/elements/1.1/"
   xmlns:cc="http://creativecommons.org/ns#"
   xmlns:rdf="http://www.w3.org/1999/02/22-rdf-syntax-ns#"
   xmlns:svg="http://www.w3.org/2000/svg"
   xmlns="http://www.w3.org/2000/svg"
   xmlns:sodipodi="http://sodipodi.sourceforge.net/DTD/sodipodi-0.dtd"
   xmlns:inkscape="http://www.inkscape.org/namespaces/inkscape"
   width="210mm"
   height="64mm"
   viewBox="0 0 744.09449 226.77166"
   id="svg4873"
   version="1.1"
   inkscape:version="0.91 r13725"
   sodipodi:docname="petmatch.svg"
   inkscape:export-filename="/home/lellis/Dropbox/PetMatch/app/assets/images/petmatch.png"
   inkscape:export-xdpi="376.74017"
   inkscape:export-ydpi="376.74017">
  <defs
     id="defs4875" />
  <sodipodi:namedview
     id="base"
     pagecolor="#ffffff"
     bordercolor="#666666"
     borderopacity="1.0"
     inkscape:pageopacity="0.0"
     inkscape:pageshadow="2"
     inkscape:zoom="0.35"
     inkscape:cx="567.30343"
     inkscape:cy="191.81235"
     inkscape:document-units="px"
     inkscape:current-layer="layer1"
     showgrid="false"
     inkscape:window-width="1920"
     inkscape:window-height="1017"
     inkscape:window-x="0"
     inkscape:window-y="26"
     inkscape:window-maximized="1" />
  <metadata
     id="metadata4878">
    <rdf:RDF>
      <cc:Work
         rdf:about="">
        <dc:format>image/svg+xml</dc:format>
        <dc:type
           rdf:resource="http://purl.org/dc/dcmitype/StillImage" />
        <dc:title></dc:title>
      </cc:Work>
    </rdf:RDF>
  </metadata>
  <g
     inkscape:groupmode="layer"
     id="layer3"
     inkscape:label="Layer 1"
     sodipodi:insensitive="true"
     style="display:none">
    <rect
       style="color:#000000;clip-rule:nonzero;display:inline;overflow:visible;visibility:visible;opacity:0.631;isolation:auto;mix-blend-mode:normal;color-interpolation:sRGB;color-interpolation-filters:linearRGB;solid-color:#000000;solid-opacity:1;fill:#241c1c;fill-opacity:1;fill-rule:nonzero;stroke:none;stroke-width:1;stroke-linecap:round;stroke-linejoin:round;stroke-miterlimit:4;stroke-dasharray:none;stroke-dashoffset:0;stroke-opacity:1;color-rendering:auto;image-rendering:auto;shape-rendering:auto;text-rendering:auto;enable-background:accumulate"
       id="rect5552"
       width="1454.2858"
       height="1017.1429"
       x="-440.00003"
       y="-456.08548"
       ry="31.595301" />
  </g>
  <g
     inkscape:label="Camada 1"
     inkscape:groupmode="layer"
     id="layer1"
     transform="translate(0,-825.59055)"
     sodipodi:insensitive="true">
    <flowRoot
       transform="translate(-3.035903e-5,825.59055)"
       style="font-style:normal;font-weight:normal;font-size:40px;line-height:125%;font-family:Sans;letter-spacing:0px;word-spacing:0px;fill:#000000;fill-opacity:1;stroke:none;stroke-width:1px;stroke-linecap:butt;stroke-linejoin:miter;stroke-opacity:1"
       id="flowRoot5534"
       xml:space="preserve"><flowRegion
         id="flowRegion5536"><rect
           y="-193.22835"
           x="-122.85714"
           height="997.14288"
           width="1660"
           id="rect5538" /></flowRegion><flowPara
         id="flowPara5540"></flowPara></flowRoot>    <g
       id="g5565"
       transform="translate(-1.7163577,-7.6715035)">
      <text
         sodipodi:linespacing="125%"
         id="text4277"
         y="989.32214"
         x="205.75658"
         style="font-style:normal;font-weight:normal;font-size:96.90159607px;line-height:125%;font-family:Sans;letter-spacing:0px;word-spacing:0px;fill:#ffffff;fill-opacity:1;stroke:none;stroke-width:1px;stroke-linecap:butt;stroke-linejoin:miter;stroke-opacity:1"
         xml:space="preserve"><tspan
           style="font-weight:bold;fill:#ffffff"
           y="989.32214"
           x="205.75658"
           id="tspan4279"
           sodipodi:role="line">PetMatch</tspan></text>
      <g
         style="fill:#ffffff;fill-opacity:1"
         id="layer1-4"
         inkscape:label="Camada 1"
         transform="matrix(0.31620811,0,0,0.31620811,-11.033559,778.76238)">
        <path
           id="path3343"
           d="m 374.28516,290.93359 a 240,240 0 0 0 -240,240 240,240 0 0 0 240,240 240,240 0 0 0 240,-240 240,240 0 0 0 -240,-240 z m 73.76953,47.48243 a 50.258794,74.313607 14.662937 0 1 3.57422,0.30664 50.258794,74.313607 14.662937 0 1 35.13476,79.58398 50.258794,74.313607 14.662937 0 1 -64.81836,65.78125 50.258794,74.313607 14.662937 0 1 -35.13476,-79.58398 50.258794,74.313607 14.662937 0 1 61.24414,-66.08789 z M 295.875,340.55859 a 74.313608,50.258794 75.337063 0 1 61.24609,66.08789 74.313608,50.258794 75.337063 0 1 -35.13671,79.58594 74.313608,50.258794 75.337063 0 1 -64.81836,-65.7832 74.313608,50.258794 75.337063 0 1 35.13671,-79.58399 74.313608,50.258794 75.337063 0 1 3.57227,-0.30664 z m 236.82422,113.57032 a 49.982827,69.606552 17.815275 0 1 3.57226,0.28515 49.982827,69.606552 17.815275 0 1 35.13477,74.13477 49.982827,69.606552 17.815275 0 1 -64.81836,61.27734 49.982827,69.606552 17.815275 0 1 -35.13477,-74.13476 49.982827,69.606552 17.815275 0 1 61.2461,-61.5625 z m -316.82422,5 a 69.606552,49.982827 72.184725 0 1 61.24609,61.5625 69.606552,49.982827 72.184725 0 1 -35.13671,74.13476 69.606552,49.982827 72.184725 0 1 -64.81836,-61.27734 69.606552,49.982827 72.184725 0 1 35.13671,-74.13477 69.606552,49.982827 72.184725 0 1 3.57227,-0.28515 z m 161.98242,79.50586 c 10.38315,-0.0638 20.33193,2.04311 30.04297,5.33984 20.59124,10.40269 34.64052,21.73969 45.83789,33.48437 21.57623,25.13479 38.97164,51.43156 51.97656,78.94727 3.9007,12.52102 8.20448,25.08207 7.5,37.14258 -1.54054,8.34041 -5.00736,14.75425 -10.35742,19.28515 -11.47062,10.61707 -22.57239,11.67307 -33.57031,10 -19.29728,-3.8517 -35.60743,-12.18575 -53.21484,-18.57226 -12.77704,-3.89528 -25.19619,-4.93367 -37.5,-4.10547 l -21.42774,4.10547 c -37.36872,15.02597 -52.05941,16.84067 -65.53711,18.75 -15.73523,0.91056 -24.00042,-4.3289 -31.96289,-12.14258 -6.05064,-4.56153 -10.67585,-13.8316 -11.96484,-28.39258 0.98176,-11.12593 4.60747,-22.692 8.39258,-34.28515 10.43435,-28.888 26.73715,-54.19035 45.71484,-77.85743 13.01172,-10.80091 27.15356,-19.62517 42.85742,-25.71484 l 19.24414,-4.97461 13.96875,-1.00976 z"
           style="fill:#ffffff;fill-opacity:1;stroke:none;stroke-opacity:1"
           inkscape:connector-curvature="0" />
      </g>
    </g>
  </g>
</svg>
